<svg width="657.9px" height="122px" xmlns="http://www.w3.org/2000/svg" viewBox="-78.96254882812497 13.9893798828125 657.9250976562499 122.021240234375" style="background: rgba(0, 0, 0, 0)" preserveAspectRatio="xMidYMid"><defs><linearGradient id="editing-gradient-gradient" x1="0" x2="1" y1="0.5" y2="0.5" gradientUnits="objectBoundingBox"><stop offset="0" stop-color="#ff00ff"></stop><stop offset="1" stop-color="#00ffff"></stop></linearGradient></defs><g><g transform="matrix(1.3,0,0,1.6,-46.5,189.3)"><path d="M 3.4 -56.9 L -10.5 -56.9 L -2.4 -99.2 L 11.7 -99.2 L 3.4 -56.9 Z M 59.2 -55.6 L 59.2 -55.6 L 59.2 -55.6 Q 51.4 -55.6 51.4 -61.7 L 51.4 -61.7 L 51.4 -61.7 Q 51.4 -64.3 52.5 -69.4 L 52.5 -69.4 L 52.5 -69.4 Q 53.7 -74.5 54 -76.5 L 54 -76.5 L 54 -76.5 Q 54.9 -81.2 54.9 -82.6 L 54.9 -82.6 L 54.9 -82.6 Q 54.9 -85.9 52.5 -85.9 L 52.5 -85.9 L 52.5 -85.9 Q 50.9 -85.9 49.4 -83.7 L 49.4 -83.7 L 49.4 -83.7 Q 47.8 -81.5 47.1 -77.1 L 47.1 -77.1 L 43.2 -56.9 L 30.7 -55.6 L 34.1 -73 L 34.1 -73 Q 34.7 -75.9 35.2 -79.2 L 35.2 -79.2 L 35.2 -79.2 Q 35.7 -82.5 35.7 -83 L 35.7 -83 L 35.7 -83 Q 35.7 -85.9 33.6 -85.9 L 33.6 -85.9 L 33.6 -85.9 Q 32.1 -85.9 30.5 -83.7 L 30.5 -83.7 L 30.5 -83.7 Q 28.9 -81.6 28 -77.1 L 28 -77.1 L 24.1 -56.9 L 11.5 -55.6 L 18.2 -89.6 L 28.6 -90.8 L 27.5 -84.4 L 27.5 -84.4 Q 29.2 -87.8 32.3 -89.3 L 32.3 -89.3 L 32.3 -89.3 Q 35.3 -90.8 40.1 -90.8 L 40.1 -90.8 L 40.1 -90.8 Q 42.9 -90.8 44.7 -89.5 L 44.7 -89.5 L 44.7 -89.5 Q 46.5 -88.1 47.1 -86 L 47.1 -86 L 47.1 -86 Q 48.1 -88.2 50.9 -89.5 L 50.9 -89.5 L 50.9 -89.5 Q 53.7 -90.8 57.1 -90.8 L 57.1 -90.8 L 57.1 -90.8 Q 60.6 -90.8 62.3 -90.1 L 62.3 -90.1 L 62.3 -90.1 Q 64 -89.4 65 -88.1 L 65 -88.1 L 65 -88.1 Q 66.7 -85.9 66.7 -81.8 L 66.7 -81.8 L 66.7 -81.8 Q 66.7 -77.8 65 -69.4 L 65 -69.4 L 65 -69.4 Q 64.1 -65.3 64.1 -63.8 L 64.1 -63.8 L 64.1 -63.8 Q 64.1 -62.3 64.9 -61.4 L 64.9 -61.4 L 64.9 -61.4 Q 65.8 -60.5 67.1 -60.4 L 67.1 -60.4 L 67.1 -60.4 Q 66.5 -58.2 64.2 -56.9 L 64.2 -56.9 L 64.2 -56.9 Q 62 -55.6 59.2 -55.6 Z M 74.8 -58.8 L 74.8 -58.8 L 74.8 -58.8 Q 73.3 -60.5 72.6 -63.1 L 72.6 -63.1 L 72.6 -63.1 Q 72 -65.7 72 -70 L 72 -70 L 72 -70 Q 72 -74.3 73.4 -78.2 L 73.4 -78.2 L 73.4 -78.2 Q 74.9 -82.1 77.6 -84.9 L 77.6 -84.9 L 77.6 -84.9 Q 83.1 -90.8 92.2 -90.8 L 92.2 -90.8 L 92.2 -90.8 Q 95.4 -90.8 97.8 -89.7 L 97.8 -89.7 L 108.8 -90.8 L 104 -65.9 L 104 -65.9 Q 103.8 -65.1 103.8 -63.7 L 103.8 -63.7 L 103.8 -63.7 Q 103.8 -62.3 104.7 -61.4 L 104.7 -61.4 L 104.7 -61.4 Q 105.6 -60.5 106.8 -60.4 L 106.8 -60.4 L 106.8 -60.4 Q 106.2 -58.2 103.9 -56.9 L 103.9 -56.9 L 103.9 -56.9 Q 101.5 -55.6 98.9 -55.6 L 98.9 -55.6 L 98.9 -55.6 Q 96.3 -55.6 94.5 -56.6 L 94.5 -56.6 L 94.5 -56.6 Q 92.8 -57.6 92.2 -59.3 L 92.2 -59.3 L 92.2 -59.3 Q 91.2 -57.7 89 -56.7 L 89 -56.7 L 89 -56.7 Q 86.9 -55.6 84 -55.6 L 84 -55.6 L 84 -55.6 Q 81 -55.6 78.7 -56.4 L 78.7 -56.4 L 78.7 -56.4 Q 76.3 -57.2 74.8 -58.8 Z M 88.3 -84.8 L 88.3 -84.8 L 88.3 -84.8 Q 87.6 -83.7 86.9 -81.7 L 86.9 -81.7 L 86.9 -81.7 Q 86.3 -79.8 85.2 -74.5 L 85.2 -74.5 L 85.2 -74.5 Q 84.2 -69.3 84.2 -65.6 L 84.2 -65.6 L 84.2 -65.6 Q 84.2 -61.9 84.8 -60.8 L 84.8 -60.8 L 84.8 -60.8 Q 85.3 -59.7 86.4 -59.7 L 86.4 -59.7 L 86.4 -59.7 Q 88.4 -59.7 89.9 -61.7 L 89.9 -61.7 L 89.9 -61.7 Q 91.4 -63.6 92 -67.1 L 92 -67.1 L 95.4 -85.8 L 95.4 -85.8 Q 94 -87 92.5 -87 L 92.5 -87 L 92.5 -87 Q 90.9 -87 90 -86.5 L 90 -86.5 L 90 -86.5 Q 89 -86 88.3 -84.8 Z M 116.5 -83.7 L 116.5 -83.7 L 116.5 -83.7 Q 118.7 -86.7 122 -88.8 L 122 -88.8 L 122 -88.8 Q 125.3 -90.8 129.3 -90.8 L 129.3 -90.8 L 129.3 -90.8 Q 133.3 -90.8 135.3 -89.6 L 135.3 -89.6 L 147.8 -90.8 L 143.4 -66.3 L 143.4 -66.3 Q 141.2 -53.7 136.5 -48.8 L 136.5 -48.8 L 136.5 -48.8 Q 131.9 -44.1 123.1 -44.1 L 123.1 -44.1 L 123.1 -44.1 Q 116.4 -44.1 112.5 -46.2 L 112.5 -46.2 L 112.5 -46.2 Q 108.7 -48.3 108.7 -51.9 L 108.7 -51.9 L 108.7 -51.9 Q 108.7 -54.5 110.7 -56 L 110.7 -56 L 110.7 -56 Q 112.7 -57.5 115.7 -57.5 L 115.7 -57.5 L 115.7 -57.5 Q 118.4 -57.5 120.5 -56.3 L 120.5 -56.3 L 120.5 -56.3 Q 121.7 -55.6 122.3 -54.7 L 122.3 -54.7 L 122.3 -54.7 Q 120.8 -53.5 120.8 -51.3 L 120.8 -51.3 L 120.8 -51.3 Q 120.8 -48.6 123.3 -48.6 L 123.3 -48.6 L 123.3 -48.6 Q 127.6 -48.6 130.1 -58.7 L 130.1 -58.7 L 130.1 -58.7 Q 130.8 -61.5 131.3 -64.2 L 131.3 -64.2 L 131.3 -64.2 Q 128.5 -60.7 121.9 -60.7 L 121.9 -60.7 L 121.9 -60.7 Q 117.4 -60.7 114.8 -62.9 L 114.8 -62.9 L 114.8 -62.9 Q 112.1 -65 112.1 -70.2 L 112.1 -70.2 L 112.1 -70.2 Q 112.1 -73.4 113.2 -77 L 113.2 -77 L 113.2 -77 Q 114.3 -80.6 116.5 -83.7 Z M 124.8 -70 L 124.8 -70 L 124.8 -70 Q 124.8 -65.6 127.1 -65.6 L 127.1 -65.6 L 127.1 -65.6 Q 128.6 -65.6 130.1 -67.3 L 130.1 -67.3 L 130.1 -67.3 Q 131.2 -68.6 131.7 -70.6 L 131.7 -70.6 L 134.9 -87.1 L 134.9 -87.1 Q 134.6 -87.1 134.3 -87.3 L 134.3 -87.3 L 134.3 -87.3 Q 133.7 -87.5 132.8 -87.5 L 132.8 -87.5 L 132.8 -87.5 Q 128.9 -87.5 126.6 -81.1 L 126.6 -81.1 L 126.6 -81.1 Q 124.8 -76.1 124.8 -70 Z M 176.2 -67.7 L 176.2 -67.7 L 176.2 -67.7 Q 177.8 -66.6 177.8 -64.2 L 177.8 -64.2 L 177.8 -64.2 Q 177.8 -61.8 176.6 -60.3 L 176.6 -60.3 L 176.6 -60.3 Q 175.4 -58.8 173.4 -57.7 L 173.4 -57.7 L 173.4 -57.7 Q 169.3 -55.6 164.9 -55.6 L 164.9 -55.6 L 164.9 -55.6 Q 160.5 -55.6 157.9 -56.6 L 157.9 -56.6 L 157.9 -56.6 Q 155.3 -57.6 153.6 -59.3 L 153.6 -59.3 L 153.6 -59.3 Q 150.2 -62.7 150.2 -68.9 L 150.2 -68.9 L 150.2 -68.9 Q 150.2 -78.6 155.4 -84.5 L 155.4 -84.5 L 155.4 -84.5 Q 161 -90.8 170.8 -90.8 L 170.8 -90.8 L 170.8 -90.8 Q 176.9 -90.8 179.9 -88.3 L 179.9 -88.3 L 179.9 -88.3 Q 182.2 -86.4 182.2 -83.2 L 182.2 -83.2 L 182.2 -83.2 Q 182.2 -72 162.7 -72 L 162.7 -72 L 162.7 -72 Q 162.5 -70.3 162.5 -68.9 L 162.5 -68.9 L 162.5 -68.9 Q 162.5 -65.9 163.8 -64.8 L 163.8 -64.8 L 163.8 -64.8 Q 165.1 -63.7 167.5 -63.7 L 167.5 -63.7 L 167.5 -63.7 Q 169.9 -63.7 172.5 -64.8 L 172.5 -64.8 L 172.5 -64.8 Q 175.1 -65.9 176.2 -67.7 Z M 163.2 -74.7 L 163.2 -74.7 L 163.2 -74.7 Q 167.7 -74.7 170.3 -77.5 L 170.3 -77.5 L 170.3 -77.5 Q 172.9 -80.2 172.9 -84.5 L 172.9 -84.5 L 172.9 -84.5 Q 172.9 -86 172.4 -86.8 L 172.4 -86.8 L 172.4 -86.8 Q 171.9 -87.6 170.8 -87.6 L 170.8 -87.6 L 170.8 -87.6 Q 169.7 -87.6 168.8 -87.2 L 168.8 -87.2 L 168.8 -87.2 Q 167.8 -86.7 166.9 -85.3 L 166.9 -85.3 L 166.9 -85.3 Q 164.5 -82.1 163.2 -74.7 Z M 203.5 -79.4 L 203.5 -79.4 L 203.5 -79.4 Q 204.4 -81.7 204.4 -83.8 L 204.4 -83.8 L 204.4 -83.8 Q 204.4 -87.6 201.3 -87.6 L 201.3 -87.6 L 201.3 -87.6 Q 199.7 -87.6 198.4 -86.1 L 198.4 -86.1 L 198.4 -86.1 Q 197.1 -84.7 197.1 -82.9 L 197.1 -82.9 L 197.1 -82.9 Q 197.1 -81.6 198.1 -80.6 L 198.1 -80.6 L 198.1 -80.6 Q 199.6 -79.2 203.3 -76.9 L 203.3 -76.9 L 203.3 -76.9 Q 207.1 -74.6 208.6 -72.7 L 208.6 -72.7 L 208.6 -72.7 Q 210 -70.8 210 -68.2 L 210 -68.2 L 210 -68.2 Q 210 -65.6 208.8 -63.3 L 208.8 -63.3 L 208.8 -63.3 Q 207.5 -60.9 205.3 -59.2 L 205.3 -59.2 L 205.3 -59.2 Q 200.5 -55.6 192.8 -55.6 L 192.8 -55.6 L 192.8 -55.6 Q 188.6 -55.6 185.4 -57.8 L 185.4 -57.8 L 185.4 -57.8 Q 182.2 -59.9 182.2 -62.4 L 182.2 -62.4 L 182.2 -62.4 Q 182.2 -64.9 184.1 -66.4 L 184.1 -66.4 L 184.1 -66.4 Q 185.9 -67.9 188.6 -67.9 L 188.6 -67.9 L 188.6 -67.9 Q 191.3 -67.9 192.9 -66.8 L 192.9 -66.8 L 192.9 -66.8 Q 192.1 -64.7 192.1 -63.3 L 192.1 -63.3 L 192.1 -63.3 Q 192.1 -59.1 195.7 -59.1 L 195.7 -59.1 L 195.7 -59.1 Q 197.2 -59.1 198.2 -60.1 L 198.2 -60.1 L 198.2 -60.1 Q 199.3 -61 199.3 -62.7 L 199.3 -62.7 L 199.3 -62.7 Q 199.3 -65.9 193.7 -69.4 L 193.7 -69.4 L 193.7 -69.4 Q 189.3 -72.3 188.2 -73.5 L 188.2 -73.5 L 188.2 -73.5 Q 186.5 -75.5 186.5 -78.1 L 186.5 -78.1 L 186.5 -78.1 Q 186.5 -80.7 187.7 -83.1 L 187.7 -83.1 L 187.7 -83.1 Q 188.9 -85.5 191.2 -87.3 L 191.2 -87.3 L 191.2 -87.3 Q 195.9 -90.8 204 -90.8 L 204 -90.8 L 204 -90.8 Q 208.1 -90.8 210.6 -89.2 L 210.6 -89.2 L 210.6 -89.2 Q 213.1 -87.5 213.1 -84.7 L 213.1 -84.7 L 213.1 -84.7 Q 213.1 -81.9 211.4 -80.3 L 211.4 -80.3 L 211.4 -80.3 Q 209.7 -78.7 206.6 -78.7 L 206.6 -78.7 L 206.6 -78.7 Q 204.5 -78.7 203.5 -79.4 Z M 254.5 -77.5 L 267.5 -78.7 L 267.5 -78.7 Q 262.9 -68.6 262.9 -56.9 L 262.9 -56.9 L 262.9 -56.9 Q 261.1 -55.6 258.6 -55.6 L 258.6 -55.6 L 258.6 -55.6 Q 256.1 -55.6 254.5 -56.8 L 254.5 -56.8 L 254.5 -56.8 Q 252.9 -58 252.6 -59.2 L 252.6 -59.2 L 252.6 -59.2 Q 251 -57.6 248.4 -56.6 L 248.4 -56.6 L 248.4 -56.6 Q 245.8 -55.6 243 -55.6 L 243 -55.6 L 243 -55.6 Q 240.3 -55.6 237.9 -56.5 L 237.9 -56.5 L 237.9 -56.5 Q 235.5 -57.4 233.6 -59.4 L 233.6 -59.4 L 233.6 -59.4 Q 229.5 -63.8 229.5 -72 L 229.5 -72 L 229.5 -72 Q 229.5 -84.8 236.4 -92.5 L 236.4 -92.5 L 236.4 -92.5 Q 243.4 -100.4 255.9 -100.4 L 255.9 -100.4 L 255.9 -100.4 Q 264.5 -100.4 267.6 -96 L 267.6 -96 L 267.6 -96 Q 268.6 -94.5 268.6 -92.9 L 268.6 -92.9 L 268.6 -92.9 Q 268.6 -91.2 267.8 -89.7 L 267.8 -89.7 L 267.8 -89.7 Q 267.1 -88.3 265.9 -87.1 L 265.9 -87.1 L 265.9 -87.1 Q 263.2 -84.6 259.8 -84.6 L 259.8 -84.6 L 259.8 -84.6 Q 258.5 -84.6 257.2 -85 L 257.2 -85 L 257.2 -85 Q 257.4 -86.9 257.4 -89.2 L 257.4 -89.2 L 257.4 -89.2 Q 257.4 -91.4 257.3 -92.4 L 257.3 -92.4 L 257.3 -92.4 Q 257.1 -93.5 256.7 -94.3 L 256.7 -94.3 L 256.7 -94.3 Q 255.9 -96 254.1 -96 L 254.1 -96 L 254.1 -96 Q 252.2 -96 250.2 -94.1 L 250.2 -94.1 L 250.2 -94.1 Q 248.2 -92.1 246.6 -88.9 L 246.6 -88.9 L 246.6 -88.9 Q 243.1 -81.7 243.1 -73.1 L 243.1 -73.1 L 243.1 -73.1 Q 243.1 -69.1 244.6 -66.3 L 244.6 -66.3 L 244.6 -66.3 Q 246.3 -63.3 249.2 -63.3 L 249.2 -63.3 L 249.2 -63.3 Q 250.3 -63.3 251.2 -63.8 L 251.2 -63.8 L 251.2 -63.8 Q 252.1 -64.3 252.5 -64.7 L 252.5 -64.7 L 254.5 -77.5 Z M 273.4 -58.8 L 273.4 -58.8 L 273.4 -58.8 Q 271.9 -60.5 271.2 -63.1 L 271.2 -63.1 L 271.2 -63.1 Q 270.5 -65.7 270.5 -70 L 270.5 -70 L 270.5 -70 Q 270.5 -74.3 272 -78.2 L 272 -78.2 L 272 -78.2 Q 273.5 -82.1 276.2 -84.9 L 276.2 -84.9 L 276.2 -84.9 Q 281.7 -90.8 290.8 -90.8 L 290.8 -90.8 L 290.8 -90.8 Q 294 -90.8 296.4 -89.7 L 296.4 -89.7 L 307.3 -90.8 L 302.6 -65.9 L 302.6 -65.9 Q 302.4 -65.1 302.4 -63.7 L 302.4 -63.7 L 302.4 -63.7 Q 302.4 -62.3 303.3 -61.4 L 303.3 -61.4 L 303.3 -61.4 Q 304.1 -60.5 305.4 -60.4 L 305.4 -60.4 L 305.4 -60.4 Q 304.8 -58.2 302.5 -56.9 L 302.5 -56.9 L 302.5 -56.9 Q 300.1 -55.6 297.5 -55.6 L 297.5 -55.6 L 297.5 -55.6 Q 294.9 -55.6 293.1 -56.6 L 293.1 -56.6 L 293.1 -56.6 Q 291.3 -57.6 290.8 -59.3 L 290.8 -59.3 L 290.8 -59.3 Q 289.8 -57.7 287.6 -56.7 L 287.6 -56.7 L 287.6 -56.7 Q 285.5 -55.6 282.5 -55.6 L 282.5 -55.6 L 282.5 -55.6 Q 279.6 -55.6 277.3 -56.4 L 277.3 -56.4 L 277.3 -56.4 Q 274.9 -57.2 273.4 -58.8 Z M 286.9 -84.8 L 286.9 -84.8 L 286.9 -84.8 Q 286.2 -83.7 285.5 -81.7 L 285.5 -81.7 L 285.5 -81.7 Q 284.9 -79.8 283.8 -74.5 L 283.8 -74.5 L 283.8 -74.5 Q 282.8 -69.3 282.8 -65.6 L 282.8 -65.6 L 282.8 -65.6 Q 282.8 -61.9 283.3 -60.8 L 283.3 -60.8 L 283.3 -60.8 Q 283.9 -59.7 284.9 -59.7 L 284.9 -59.7 L 284.9 -59.7 Q 287 -59.7 288.5 -61.7 L 288.5 -61.7 L 288.5 -61.7 Q 290 -63.6 290.6 -67.1 L 290.6 -67.1 L 294 -85.8 L 294 -85.8 Q 292.6 -87 291.1 -87 L 291.1 -87 L 291.1 -87 Q 289.5 -87 288.6 -86.5 L 288.6 -86.5 L 288.6 -86.5 Q 287.6 -86 286.9 -84.8 Z M 326.1 -60.4 L 326.1 -60.4 L 326.1 -60.4 Q 324.1 -55.6 317.8 -55.6 L 317.8 -55.6 L 317.8 -55.6 Q 314.6 -55.6 312.5 -57.9 L 312.5 -57.9 L 312.5 -57.9 Q 310.9 -59.7 310.9 -61.8 L 310.9 -61.8 L 310.9 -61.8 Q 310.9 -66.6 313.1 -77.1 L 313.1 -77.1 L 317.8 -101.7 L 330.8 -103 L 324.6 -70.6 L 324.6 -70.6 Q 323.5 -65.9 323.5 -64.2 L 323.5 -64.2 L 323.5 -64.2 Q 323.5 -60.6 326.1 -60.4 Z M 346.8 -60.4 L 346.8 -60.4 L 346.8 -60.4 Q 344.9 -55.6 338.5 -55.6 L 338.5 -55.6 L 338.5 -55.6 Q 335.3 -55.6 333.3 -57.9 L 333.3 -57.9 L 333.3 -57.9 Q 331.6 -59.7 331.6 -61.8 L 331.6 -61.8 L 331.6 -61.8 Q 331.6 -66.6 333.8 -77.1 L 333.8 -77.1 L 338.5 -101.7 L 351.5 -103 L 345.3 -70.6 L 345.3 -70.6 Q 344.2 -65.9 344.2 -64.2 L 344.2 -64.2 L 344.2 -64.2 Q 344.2 -60.6 346.8 -60.4 Z M 378.2 -67.7 L 378.2 -67.7 L 378.2 -67.7 Q 379.8 -66.6 379.8 -64.2 L 379.8 -64.2 L 379.8 -64.2 Q 379.8 -61.8 378.6 -60.3 L 378.6 -60.3 L 378.6 -60.3 Q 377.4 -58.8 375.4 -57.7 L 375.4 -57.7 L 375.4 -57.7 Q 371.3 -55.6 366.9 -55.6 L 366.9 -55.6 L 366.9 -55.6 Q 362.5 -55.6 359.9 -56.6 L 359.9 -56.6 L 359.9 -56.6 Q 357.3 -57.6 355.5 -59.3 L 355.5 -59.3 L 355.5 -59.3 Q 352.1 -62.7 352.1 -68.9 L 352.1 -68.9 L 352.1 -68.9 Q 352.1 -78.6 357.4 -84.5 L 357.4 -84.5 L 357.4 -84.5 Q 363 -90.8 372.8 -90.8 L 372.8 -90.8 L 372.8 -90.8 Q 378.9 -90.8 381.9 -88.3 L 381.9 -88.3 L 381.9 -88.3 Q 384.1 -86.4 384.1 -83.2 L 384.1 -83.2 L 384.1 -83.2 Q 384.1 -72 364.7 -72 L 364.7 -72 L 364.7 -72 Q 364.4 -70.3 364.4 -68.9 L 364.4 -68.9 L 364.4 -68.9 Q 364.4 -65.9 365.7 -64.8 L 365.7 -64.8 L 365.7 -64.8 Q 367.1 -63.7 369.5 -63.7 L 369.5 -63.7 L 369.5 -63.7 Q 371.9 -63.7 374.5 -64.8 L 374.5 -64.8 L 374.5 -64.8 Q 377.1 -65.9 378.2 -67.7 Z M 365.1 -74.7 L 365.1 -74.7 L 365.1 -74.7 Q 369.7 -74.7 372.3 -77.5 L 372.3 -77.5 L 372.3 -77.5 Q 374.9 -80.2 374.9 -84.5 L 374.9 -84.5 L 374.9 -84.5 Q 374.9 -86 374.4 -86.8 L 374.4 -86.8 L 374.4 -86.8 Q 373.8 -87.6 372.8 -87.6 L 372.8 -87.6 L 372.8 -87.6 Q 371.7 -87.6 370.7 -87.2 L 370.7 -87.2 L 370.7 -87.2 Q 369.8 -86.7 368.9 -85.3 L 368.9 -85.3 L 368.9 -85.3 Q 366.5 -82.1 365.1 -74.7 Z M 406.4 -74.9 L 406.4 -74.9 L 406.4 -74.9 Q 408.7 -79 408.7 -83.2 L 408.7 -83.2 L 408.7 -83.2 Q 408.7 -85.9 406.7 -85.9 L 406.7 -85.9 L 406.7 -85.9 Q 405.1 -85.9 403.5 -83.3 L 403.5 -83.3 L 403.5 -83.3 Q 401.9 -80.7 401.4 -77.3 L 401.4 -77.3 L 398 -56.9 L 384.8 -55.6 L 391.3 -89.6 L 401.9 -90.8 L 400.7 -84.4 L 400.7 -84.4 Q 403.9 -90.8 410.9 -90.8 L 410.9 -90.8 L 410.9 -90.8 Q 414.6 -90.8 416.6 -88.9 L 416.6 -88.9 L 416.6 -88.9 Q 418.6 -87 418.6 -83.1 L 418.6 -83.1 L 418.6 -83.1 Q 418.6 -79.1 416.1 -76.6 L 416.1 -76.6 L 416.1 -76.6 Q 413.5 -74.1 409 -74.1 L 409 -74.1 L 409 -74.1 Q 407.1 -74.1 406.4 -74.9 Z M 440 -64.1 L 440 -64.1 L 440 -64.1 Q 436.7 -60.7 430.6 -60.7 L 430.6 -60.7 L 430.6 -60.7 Q 423 -60.7 421.4 -66.3 L 421.4 -66.3 L 421.4 -66.3 Q 420.9 -67.9 420.9 -69.8 L 420.9 -69.8 L 420.9 -69.8 Q 420.9 -71.6 421.3 -73.6 L 421.3 -73.6 L 424.3 -89.6 L 437.3 -90.8 L 433.7 -72.2 L 433.7 -72.2 Q 433.6 -71.4 433.4 -70.5 L 433.4 -70.5 L 433.4 -70.5 Q 433.2 -69.6 433.2 -68.7 L 433.2 -68.7 L 433.2 -68.7 Q 433.2 -67.7 433.6 -67.1 L 433.6 -67.1 L 433.6 -67.1 Q 433.9 -66.5 434.3 -66.1 L 434.3 -66.1 L 434.3 -66.1 Q 435.1 -65.6 436.5 -65.6 L 436.5 -65.6 L 436.5 -65.6 Q 437.8 -65.6 439 -67.3 L 439 -67.3 L 439 -67.3 Q 440.2 -68.9 440.8 -71.8 L 440.8 -71.8 L 444.3 -89.6 L 456.9 -90.8 L 452.1 -65.7 L 452.1 -65.7 Q 449.7 -53.4 444.9 -48.5 L 444.9 -48.5 L 444.9 -48.5 Q 442.4 -46 439.2 -45 L 439.2 -45 L 439.2 -45 Q 435.9 -44.1 431.8 -44.1 L 431.8 -44.1 L 431.8 -44.1 Q 425 -44.1 421.2 -46.2 L 421.2 -46.2 L 421.2 -46.2 Q 417.4 -48.3 417.4 -51.8 L 417.4 -51.8 L 417.4 -51.8 Q 417.4 -54.4 419.3 -55.9 L 419.3 -55.9 L 419.3 -55.9 Q 421.3 -57.4 424.4 -57.4 L 424.4 -57.4 L 424.4 -57.4 Q 427.1 -57.4 429.1 -56.3 L 429.1 -56.3 L 429.1 -56.3 Q 430.4 -55.6 430.9 -54.7 L 430.9 -54.7 L 430.9 -54.7 Q 429.5 -53.4 429.5 -51.3 L 429.5 -51.3 L 429.5 -51.3 Q 429.5 -48.5 432 -48.5 L 432 -48.5 L 432 -48.5 Q 436.2 -48.5 438.7 -58.2 L 438.7 -58.2 L 438.7 -58.2 Q 439.4 -61.1 440 -64.1 Z" fill="url(#editing-gradient-gradient)"></path></g></g><style>text {
  font-size: 64px;
  font-family: Arial Black;
  dominant-baseline: central;
  text-anchor: middle;
}</style></svg>